<svg width="50" height="49" viewBox="0 0 50 49" fill="none" xmlns="http://www.w3.org/2000/svg">
<path d="M25 48.1897C12.9741 48.1897 0 40.6466 0 24.0948C0 7.5431 12.9741 0 25 0C31.681 0 37.8448 2.19828 42.4138 6.2069C47.3707 10.6034 50 16.8103 50 24.0948C50 31.3793 47.3707 37.5431 42.4138 41.9397C37.8448 45.9483 31.6379 48.1897 25 48.1897Z" fill="url(#paint0_radial_72_72)"/>
<path d="M45.6422 9.77148C47.9397 13.4784 49.1379 17.8922 49.1379 22.8017C49.1379 30.0861 46.5086 36.2499 41.5517 40.6465C36.9828 44.6551 30.7759 46.8965 24.1379 46.8965C16.3535 46.8965 8.17242 43.7284 3.3707 37.0086C8.00863 44.6206 16.7285 48.1896 25 48.1896C31.6379 48.1896 37.8448 45.9482 42.4138 41.9396C47.3707 37.543 50 31.3792 50 24.0948C50 18.6034 48.5043 13.7241 45.6422 9.77148Z" fill="#EB8F00"/>
<path opacity="0.8" d="M9.33189 35.4871C13.4978 35.4871 16.875 32.1099 16.875 27.944C16.875 23.778 13.4978 20.4009 9.33189 20.4009C5.16595 20.4009 1.78879 23.778 1.78879 27.944C1.78879 32.1099 5.16595 35.4871 9.33189 35.4871Z" fill="url(#paint1_radial_72_72)"/>
<path opacity="0.8" d="M41.0129 35.4871C45.1789 35.4871 48.556 32.1099 48.556 27.944C48.556 23.778 45.1789 20.4009 41.0129 20.4009C36.847 20.4009 33.4698 23.778 33.4698 27.944C33.4698 32.1099 36.847 35.4871 41.0129 35.4871Z" fill="url(#paint2_radial_72_72)"/>
<path d="M18.6896 21.5042C18.6896 21.5042 18.6681 21.474 18.6207 21.418C18.5776 21.3619 18.5172 21.2844 18.4396 21.1852C18.375 21.1163 18.2974 21.0344 18.2069 20.9395C18.1164 20.8361 18.0043 20.7283 17.8922 20.6163C17.7759 20.5085 17.6552 20.3964 17.5302 20.3059C17.4095 20.2068 17.2759 20.1335 17.1681 20.0732C17.056 20.0042 16.9526 19.987 16.8879 19.9654C16.8534 19.9525 16.8233 19.9525 16.7974 19.9482C16.7845 19.9525 16.7715 19.9438 16.7586 19.9482L16.7414 19.9525H16.7328H16.7284C16.7802 19.9525 16.6121 19.9568 16.8448 19.9482L16.6078 19.9568C16.5474 19.9568 16.5862 19.9611 16.5905 19.9611C16.6034 19.9611 16.6121 19.9611 16.6207 19.9568C16.6552 19.9438 16.6207 19.9568 16.6121 19.9568C16.5991 19.9568 16.5819 19.9611 16.5646 19.9697C16.4957 19.9913 16.3922 20.0085 16.2845 20.0775C16.1767 20.1378 16.0431 20.2111 15.9224 20.3102C15.8017 20.4051 15.6767 20.5128 15.5603 20.6206C15.3362 20.8404 15.1379 21.0602 15 21.2197C14.8578 21.3835 14.7802 21.4783 14.7802 21.4783L14.681 21.5947C14.0905 22.2844 13.0043 22.4007 12.2586 21.8576C11.75 21.4869 11.5302 20.9094 11.625 20.3576C11.625 20.3576 11.6552 20.1809 11.7414 19.8749C11.8319 19.5688 11.9828 19.1335 12.2802 18.6206C12.5776 18.112 13.0086 17.5128 13.7371 16.9654C14.0948 16.6982 14.5302 16.4309 15.0474 16.2499C15.1724 16.2025 15.306 16.1594 15.444 16.1249C15.5862 16.0904 15.6983 16.0516 15.8922 16.0257L16.1595 15.987C16.2414 15.9783 16.3621 15.9654 16.3793 15.9654L16.6164 15.9482L16.75 15.9438H16.7629H16.7888L16.8448 15.9482H16.9483L17.1681 15.9611C17.3146 15.974 17.4569 15.9999 17.5991 16.0214C17.8793 16.0732 18.1595 16.1464 18.4138 16.2413C18.931 16.4223 19.3664 16.6852 19.7241 16.9568C20.4526 17.5042 20.8836 18.1033 21.181 18.612C21.3319 18.8663 21.444 19.1076 21.5259 19.3188C21.6164 19.5214 21.681 19.737 21.7328 19.8964C21.7802 20.0516 21.7802 20.1335 21.8017 20.2068C21.8146 20.2757 21.819 20.3145 21.819 20.3145C21.9784 21.1852 21.3362 22.0085 20.3922 22.1507C19.7155 22.2585 19.0646 21.9869 18.6896 21.5042Z" fill="#422B0D"/>
<path d="M35.7155 21.5042C35.7155 21.5042 35.694 21.474 35.6466 21.418C35.6035 21.3619 35.5431 21.2844 35.4655 21.1852C35.4009 21.1163 35.3233 21.0344 35.2328 20.9395C35.1422 20.8361 35.0302 20.7283 34.9181 20.6163C34.8017 20.5085 34.681 20.3964 34.556 20.3059C34.4353 20.2068 34.3017 20.1335 34.194 20.0732C34.0819 20.0042 33.9785 19.987 33.9138 19.9654C33.8793 19.9525 33.8491 19.9525 33.8233 19.9482C33.8103 19.9525 33.7974 19.9438 33.7845 19.9482L33.7672 19.9525H33.7586H33.7543H33.75C33.8017 19.9525 33.6336 19.9568 33.8664 19.9482L33.6293 19.9568C33.569 19.9568 33.6078 19.9611 33.6121 19.9611C33.625 19.9611 33.6336 19.9611 33.6422 19.9568C33.6767 19.9438 33.6422 19.9568 33.6336 19.9568C33.6207 19.9568 33.6034 19.9611 33.5862 19.9697C33.5172 19.9913 33.4138 20.0085 33.306 20.0775C33.1983 20.1378 33.0647 20.2111 32.944 20.3102C32.8233 20.4051 32.6983 20.5128 32.5819 20.6206C32.3578 20.8404 32.1595 21.0602 32.0216 21.2197C31.8793 21.3835 31.8017 21.4783 31.8017 21.4783L31.7026 21.5947C31.1121 22.2844 30.0259 22.4007 29.2802 21.8576C28.7716 21.4869 28.5517 20.9094 28.6466 20.3576C28.6466 20.3576 28.6767 20.1809 28.7629 19.8749C28.8535 19.5688 29.0043 19.1335 29.3017 18.6206C29.5991 18.112 30.0302 17.5128 30.7586 16.9654C31.1164 16.6982 31.5517 16.4309 32.069 16.2499C32.194 16.2025 32.3276 16.1594 32.4655 16.1249C32.6078 16.0904 32.7198 16.0516 32.9138 16.0257L33.181 15.987C33.2629 15.9783 33.3836 15.9654 33.4009 15.9654L33.6379 15.9482L33.7716 15.9438H33.7845H33.8103L33.8664 15.9482H33.9698L34.1897 15.9611C34.3362 15.974 34.4785 15.9999 34.6207 16.0214C34.9009 16.0732 35.181 16.1464 35.4353 16.2413C35.9526 16.4223 36.3879 16.6852 36.7457 16.9568C37.4741 17.5042 37.9052 18.1033 38.2026 18.612C38.3535 18.8663 38.4655 19.1076 38.5474 19.3188C38.6379 19.5214 38.7026 19.737 38.7543 19.8964C38.8017 20.0516 38.8017 20.1335 38.8233 20.2068C38.8362 20.2757 38.8405 20.3145 38.8405 20.3145C39 21.1852 38.3578 22.0085 37.4138 22.1507C36.7371 22.2585 36.0862 21.9869 35.7155 21.5042Z" fill="#422B0D"/>
<path d="M25.181 37.4958C19.7629 37.4958 15.4784 34.9312 13.1164 32.1855C12.8793 31.9096 12.8233 31.5389 12.9741 31.2157C13.125 30.8838 13.4526 30.6682 13.806 30.6682C13.9655 30.6682 14.1293 30.7113 14.2715 30.7932C16.7069 32.1984 20.7974 33.9355 25.1681 33.9355H25.2371C29.6121 33.9355 33.6983 32.1941 36.1336 30.7932C36.2802 30.7113 36.4397 30.6639 36.5991 30.6682C36.9526 30.6682 37.2802 30.8838 37.431 31.2157C37.5776 31.5389 37.5259 31.9139 37.2888 32.1855C34.9267 34.9269 30.6379 37.4958 25.2241 37.4958" fill="#422B0D"/>
<defs>
<radialGradient id="paint0_radial_72_72" cx="0" cy="0" r="1" gradientUnits="userSpaceOnUse" gradientTransform="translate(25 24.0948) scale(24.5516 24.5516)">
<stop offset="0.5" stop-color="#FDE030"/>
<stop offset="0.9188" stop-color="#F7C02B"/>
<stop offset="1" stop-color="#F4A223"/>
</radialGradient>
<radialGradient id="paint1_radial_72_72" cx="0" cy="0" r="1" gradientUnits="userSpaceOnUse" gradientTransform="translate(9.33213 27.9434) scale(8.20604 7.79536)">
<stop stop-color="#ED7770"/>
<stop offset="0.9" stop-color="#ED7770" stop-opacity="0"/>
</radialGradient>
<radialGradient id="paint2_radial_72_72" cx="0" cy="0" r="1" gradientUnits="userSpaceOnUse" gradientTransform="translate(41.014 27.9434) scale(8.20604 7.79536)">
<stop stop-color="#ED7770"/>
<stop offset="0.9" stop-color="#ED7770" stop-opacity="0"/>
</radialGradient>
</defs>
</svg>
