<svg width="50" height="49" viewBox="0 0 50 49" fill="none" xmlns="http://www.w3.org/2000/svg">
<path d="M25 48.1897C12.9741 48.1897 0 40.6466 0 24.0948C0 7.5431 12.9741 0 25 0C31.681 0 37.8448 2.19828 42.4138 6.2069C47.3707 10.6034 50 16.8103 50 24.0948C50 31.3793 47.3707 37.5431 42.4138 41.9397C37.8448 45.9483 31.6379 48.1897 25 48.1897Z" fill="url(#paint0_radial_72_79)"/>
<path d="M45.6422 9.77148C47.9397 13.4784 49.1379 17.8922 49.1379 22.8017C49.1379 30.0861 46.5086 36.2499 41.5517 40.6465C36.9828 44.6551 30.7759 46.8965 24.1379 46.8965C16.3535 46.8965 8.18966 43.7284 3.3707 37.0086C8.00863 44.6206 16.7328 48.1896 25 48.1896C31.6379 48.1896 37.8448 45.9482 42.4138 41.9396C47.3707 37.543 50 31.3792 50 24.0948C50 18.6034 48.5043 13.7241 45.6422 9.77148Z" fill="#EB8F00"/>
<path d="M28.1897 40.5171C27.944 40.5171 27.6983 40.4654 27.4741 40.3619C25.8879 39.6594 24.0819 39.6464 22.4914 40.3361C21.6422 40.7628 20.6035 40.418 20.1767 39.5688C19.75 38.7197 20.0948 37.6809 20.944 37.2542C23.4741 36.1076 26.3664 36.099 28.9052 37.224C29.7716 37.6206 30.1552 38.6421 29.7586 39.5085C29.4785 40.1249 28.8664 40.5171 28.1897 40.5171Z" fill="#422B0D"/>
<path d="M16.1207 17.543C20.25 17.5559 23.5905 20.9137 23.5776 25.043C23.5647 29.1723 20.2069 32.5128 16.0776 32.4999C11.9483 32.4869 8.60777 29.1292 8.6207 24.9999C8.64657 20.8749 11.9957 17.5473 16.1207 17.543Z" fill="white"/>
<path d="M15.9914 30.6897C19.6574 30.6897 22.6293 27.7178 22.6293 24.0517C22.6293 20.3857 19.6574 17.4138 15.9914 17.4138C12.3254 17.4138 9.35345 20.3857 9.35345 24.0517C9.35345 27.7178 12.3254 30.6897 15.9914 30.6897Z" fill="#422B0D"/>
<path d="M18.9946 27.3529C19.4686 26.955 19.5552 26.2777 19.1879 25.8401C18.8206 25.4025 18.1385 25.3704 17.6645 25.7683C17.1904 26.1662 17.1039 26.8435 17.4712 27.2811C17.8385 27.7187 18.5205 27.7508 18.9946 27.3529Z" fill="white"/>
<path d="M16.1429 24.512C17.8616 23.2327 18.4138 21.0656 17.3761 19.6715C16.3385 18.2775 14.104 18.1844 12.3853 19.4637C10.6666 20.743 10.1145 22.9101 11.1522 24.3042C12.1898 25.6983 14.4242 25.7913 16.1429 24.512Z" fill="white"/>
<path d="M34.6552 17.543C38.7845 17.5559 42.125 20.9137 42.1121 25.043C42.0992 29.1723 38.7414 32.5128 34.6121 32.4999C30.4828 32.4869 27.1423 29.1292 27.1552 24.9999C27.1811 20.8749 30.5302 17.5473 34.6552 17.543Z" fill="white"/>
<path d="M34.5259 30.6897C38.1919 30.6897 41.1638 27.7178 41.1638 24.0517C41.1638 20.3857 38.1919 17.4138 34.5259 17.4138C30.8598 17.4138 27.8879 20.3857 27.8879 24.0517C27.8879 27.7178 30.8598 30.6897 34.5259 30.6897Z" fill="#422B0D"/>
<path d="M37.5635 27.3268C38.0376 26.9289 38.1241 26.2516 37.7568 25.814C37.3895 25.3764 36.7074 25.3442 36.2334 25.7422C35.7594 26.1401 35.6728 26.8174 36.0401 27.255C36.4074 27.6925 37.0895 27.7247 37.5635 27.3268Z" fill="white"/>
<path d="M34.6822 24.5152C36.4009 23.2359 36.953 21.0688 35.9153 19.6747C34.8777 18.2806 32.6432 18.1876 30.9245 19.4669C29.2058 20.7461 28.6537 22.9133 29.6914 24.3074C30.729 25.7014 32.9635 25.7945 34.6822 24.5152Z" fill="white"/>
<path d="M9.39654 14.138C8.44827 14.3104 8.40516 15.6897 9.43965 15.7328C11.7241 15.763 13.931 14.9139 15.6034 13.3622C16.2414 12.8104 16.7802 12.1553 17.1983 11.4225C17.4483 11.0647 17.3621 10.5734 17.0043 10.3234C16.6465 10.0734 16.1552 10.1596 15.9052 10.5173L15.8621 10.5604C14.1724 12.4484 11.8922 13.7113 9.39654 14.138Z" fill="#422B0D"/>
<path d="M34.0086 10.5173C33.7586 10.1596 33.2672 10.0734 32.9095 10.3234C32.5517 10.5734 32.4655 11.0647 32.7155 11.4225C33.1336 12.1553 33.6724 12.8104 34.3103 13.3622C35.9914 14.9009 38.194 15.7501 40.4741 15.7328C41.5517 15.6897 41.4655 14.3104 40.5172 14.138C37.9914 13.7242 35.694 12.444 34.0086 10.5173Z" fill="#422B0D"/>
<defs>
<radialGradient id="paint0_radial_72_79" cx="0" cy="0" r="1" gradientUnits="userSpaceOnUse" gradientTransform="translate(25 24.0948) scale(24.5516 24.5516)">
<stop offset="0.5" stop-color="#FDE030"/>
<stop offset="0.92" stop-color="#F7C02B"/>
<stop offset="1" stop-color="#F4A223"/>
</radialGradient>
</defs>
</svg>
