<svg width="90" height="84" viewBox="0 0 90 84" fill="none" xmlns="http://www.w3.org/2000/svg">
<path d="M37.8844 0.461262C31.7697 1.53344 25.2137 4.30849 20.013 8.06112C13.6461 12.6652 7.81508 20.5804 5.26203 28.1803C4.50556 30.4192 4.31645 30.703 3.49695 30.8922C2.04706 31.1761 1.19604 31.8698 0.502621 33.3204C-0.379918 35.0864 -0.0962445 36.6 1.32212 38.0191C2.58289 39.2805 4.44253 39.5012 6.23912 38.5552C8.69762 37.2938 9.04433 34.0457 6.93254 31.9329L5.79785 30.7976L6.3652 29.0002C7.21622 26.1936 9.20193 22.1571 11.1561 19.2559C17.1448 10.3632 26.506 4.11929 37.1595 1.94339C40.5005 1.24963 49.1998 1.18656 52.3833 1.81725C55.4406 2.41641 60.5468 4.11929 62.9737 5.3176C73.6588 10.71 81.0973 19.6659 84.2807 31.0184C84.9742 33.4466 85.2578 34.0142 85.7306 34.0142C86.2665 34.0142 86.298 33.8565 86.1089 32.6582C85.9828 31.9329 85.3839 29.9147 84.7851 28.1803C79.805 13.7689 66.8821 2.82636 52.0366 0.461262C48.1597 -0.137897 41.3831 -0.169434 37.8844 0.461262ZM6.30216 33.0997C7.46837 34.5503 7.24774 36.3793 5.73481 37.3569C3.43391 38.8705 0.439582 36.5054 1.47972 33.9826C2.2677 32.1221 5.07291 31.586 6.30216 33.0997Z" fill="url(#paint0_linear_37_134)"/>
<path d="M39.7126 15.5665C37.5693 16.1656 36.0248 16.954 34.0706 18.4992C32.8099 19.4768 32.1164 19.7921 30.6981 19.9498C28.145 20.2651 24.93 21.968 22.9759 24.0493C22.0618 24.9953 21.3369 26.036 21.3369 26.3513C21.3684 26.6667 22.0618 27.6758 22.9128 28.5588C24.2681 30.0409 24.5833 30.2301 25.718 30.2301C26.443 30.2301 27.294 30.4193 27.6407 30.6085C28.1765 30.9554 28.7124 30.8608 31.0448 30.0409C33.4718 29.1895 33.787 28.9687 33.8815 28.2434C34.0076 27.1712 35.3314 26.1306 36.5291 26.1306C37.7584 26.1306 38.9876 27.392 38.9876 28.6534C38.9876 29.8832 37.7584 31.1761 36.5922 31.1761C36.1509 31.1761 35.3944 30.9554 34.9532 30.6716C34.1337 30.2301 33.9445 30.2301 31.3285 31.1761C29.1536 31.9645 28.5863 32.3114 28.5863 32.816C28.5863 33.1313 28.4287 33.6989 28.2711 34.0143C27.9874 34.5188 28.3341 35.0549 30.2253 37.2308C31.486 38.6814 32.6523 39.9428 32.8414 40.0689C32.999 40.1951 34.8901 40.3212 37.0019 40.3212H40.8473L44.8817 44.1054C47.6869 46.7543 49.0738 47.8265 49.452 47.7003C50.1139 47.5111 51.7844 48.331 52.0366 48.9932C52.7615 50.9169 51.6899 52.7459 49.8618 52.7459C47.9391 52.7459 46.6153 50.7907 47.4978 49.1509C47.75 48.6464 47.2457 48.0157 43.9677 44.9253L40.1538 41.2673H36.1194H32.1164L29.5634 38.303C27.3255 35.7171 26.8842 35.3387 25.7495 35.1495C24.2051 34.8972 23.4171 33.8566 23.6062 32.3114C23.7008 31.3969 23.5117 30.9869 21.9357 29.2525L20.1706 27.2658L18.7523 28.0857C16.7666 29.2525 14.8124 31.4915 13.6777 33.9512C12.7006 36.001 12.6691 36.1902 12.6691 40.4789C12.6691 44.3261 12.7636 45.0829 13.331 46.3443C14.2135 48.2049 16.1677 50.3808 17.46 50.9484C18.5632 51.3899 23.3541 51.516 23.165 51.0745C23.1335 50.9484 22.2194 48.8356 21.1793 46.3759C19.3827 42.1502 19.2566 41.9295 18.248 41.7403C15.0645 41.1411 15.3482 36.8524 18.5632 36.8524C20.4543 36.8524 21.652 38.9968 20.6434 40.605C20.3598 41.078 20.4858 41.6141 21.2738 43.5062L22.2509 45.8398L24.4888 45.9344C26.6321 46.029 26.7582 45.9975 27.6407 45.0514C29.3427 43.2539 32.0534 44.2946 32.0534 46.7543C32.0534 49.0248 29.2797 49.9393 27.6407 48.2049C26.8527 47.3534 26.569 47.2588 24.8355 47.2588C23.7638 47.2588 22.9128 47.3534 22.9128 47.448C22.9128 47.5427 23.3856 48.6464 23.953 49.8762C24.7725 51.6422 25.4344 52.5251 26.9788 53.8496C28.4602 55.1425 29.0275 55.4579 29.3112 55.174C29.5003 54.9848 30.1938 54.8272 30.8241 54.8272C31.7382 54.8272 32.2425 55.0479 32.9044 55.7417C33.7239 56.5616 33.913 56.6246 35.5205 56.4354L37.2541 56.2462L37.3486 53.282L37.4432 50.3177L36.4031 49.4663C34.5434 47.9211 35.2999 45.0514 37.6008 45.0514C39.0822 45.0514 39.5865 45.3352 40.1223 46.3759C40.7212 47.5111 40.3114 48.8356 39.1137 49.6239C38.3572 50.097 38.3257 50.2231 38.4203 53.345L38.5148 56.5616L40.0908 57.6022C42.2341 58.9897 43.621 59.3366 47.3402 59.3682C50.0509 59.3682 50.7128 59.2736 52.0366 58.6113C54.2745 57.5392 55.8504 55.8678 56.9851 53.4396C58.1513 50.9169 58.1198 50.3492 56.5123 46.8489C55.5667 44.7991 55.2831 44.4207 54.6212 44.4207C53.6126 44.4207 52.5409 43.0332 52.5409 41.7087C52.5409 40.8258 52.1942 40.3527 49.9878 38.3661C47.4978 36.0956 47.4348 36.064 45.9534 36.1586C44.5981 36.2532 44.3459 36.1586 43.747 35.4018C42.9275 34.3612 42.896 33.3836 43.7155 32.3429C44.535 31.3023 45.7012 31.05 46.8359 31.6176C47.8445 32.1537 48.1282 32.6898 48.1282 34.1089C48.1597 34.9603 48.538 35.4649 50.6497 37.3254C53.0452 39.4382 53.2028 39.5328 54.7472 39.5328C56.2286 39.5328 56.4493 39.4382 57.7731 38.0822L59.223 36.6316L53.4234 31.3969C47.9706 26.4144 47.5924 26.1306 46.3631 26.1306C44.7241 26.1306 43.7155 25.153 43.7155 23.5763C43.7155 21.7157 45.5121 20.5805 47.3402 21.2743C48.1282 21.5896 48.8216 23.1979 48.601 24.3331C48.4119 25.2792 48.5695 25.4684 50.5237 27.1397L52.667 28.9687L55.1255 26.3513C56.8906 24.4908 57.5525 23.5448 57.5525 22.9771C57.4894 21.4635 57.584 21.085 58.2144 20.4544C59.0023 19.666 60.7359 19.6344 61.65 20.3597C61.9967 20.6751 62.4064 21.3689 62.501 21.9365C62.6586 22.7879 62.5325 23.1033 61.713 23.9232C60.862 24.8061 60.5783 24.9007 59.5382 24.7431C58.4035 24.5539 58.3089 24.6169 56.1026 27.0451C54.8418 28.4326 53.8017 29.694 53.8017 29.8517C53.8017 30.0409 55.3776 31.5546 57.2688 33.2574C59.1915 34.9603 60.7359 36.5055 60.7359 36.6947C60.7359 36.8839 59.9794 37.7984 59.0339 38.7129C57.4894 40.2266 57.3318 40.5104 57.4894 41.4565C57.6155 42.1502 57.4894 42.7809 57.1427 43.317C56.6384 44.1054 56.6699 44.2315 57.8361 46.8489C59.0023 49.4978 59.0969 49.6239 60.2946 49.8762C63.0053 50.4754 66.5985 49.3717 68.7103 47.3219C70.0026 46.0921 71.1372 44.1684 71.1372 43.2539C71.1372 42.9386 70.1601 41.7087 68.9309 40.4789L66.7246 38.2715L67.9538 36.8524C68.9624 35.6856 69.12 35.3072 68.8994 34.708C68.269 33.0367 69.4982 31.3654 71.3264 31.3654C72.7762 31.3654 73.7849 32.3745 73.7849 33.8251C73.7849 35.4018 72.9338 36.2217 71.3264 36.2217C70.2232 36.2217 69.908 36.3794 69.1831 37.2939L68.332 38.3345L70.1601 40.132C71.2318 41.2042 72.2089 41.8979 72.6187 41.8979C74.4152 41.8979 77.1574 37.893 77.5987 34.645C77.8508 32.7529 77.0944 29.5994 75.9912 27.9281C75.0141 26.4459 72.9654 24.9323 71.5785 24.68C70.6014 24.4908 70.3493 24.6485 67.8277 26.9505C65.4953 29.0949 65.1486 29.5363 65.1486 30.4824C65.1486 31.9014 64.7073 32.6267 63.5726 33.0367C62.4064 33.4151 61.3032 33.0682 60.6098 32.0591C59.8534 30.9869 60.011 29.9778 61.0511 28.9372C61.8706 28.0857 62.1543 27.9911 63.3205 28.1488C64.6443 28.338 64.7073 28.3065 67.2919 25.8783L69.8765 23.4501L69.0255 21.7473C67.8908 19.5714 65.5899 17.4901 63.5096 16.7963C60.9881 15.9764 57.3318 16.1026 54.3375 17.1117L51.879 17.9316L50.0194 16.9855C46.3631 15.1565 43.0221 14.6835 39.7126 15.5665Z" fill="url(#paint1_linear_37_134)"/>
<path d="M84.2177 45.0513C83.2721 45.4297 82.2004 46.7227 81.8537 47.8579C81.4125 49.4031 81.8222 50.696 83.1775 51.989L84.3753 53.1873L83.4612 55.7101C78.229 69.8376 66.3463 79.6134 51.3116 82.1046C46.3316 82.956 39.744 82.6407 34.7325 81.3478C27.5461 79.4557 21.6835 76.0499 16.2307 70.5944C10.6833 65.0443 7.21619 58.8951 5.262 51.106C4.9468 49.8761 4.2849 49.3716 3.87515 50.0653C3.62299 50.4438 5.07288 55.5839 6.20757 58.2959C9.95836 67.3779 18.1218 75.8923 27.0418 80.0233C38.893 85.4788 52.4778 85.3211 63.9193 79.5503C73.5327 74.7255 81.2234 65.9588 84.8481 55.7101C85.6676 53.408 85.7936 53.2188 86.8653 52.935C90.3954 51.989 91.1519 47.2272 88.063 45.3667C87.0229 44.7044 85.3208 44.5783 84.2177 45.0513ZM88.0945 47.1326C89.639 48.867 88.2206 51.6736 85.7936 51.6736C82.7048 51.6736 82.0744 47.3534 85.0057 46.2181C85.8882 45.8712 87.3696 46.3127 88.0945 47.1326Z" fill="url(#paint2_linear_37_134)"/>
<path d="M19.2251 54.1964C19.6348 57.5076 21.589 60.2511 24.3312 61.2918L25.7811 61.8594L27.1679 60.3142C29.0275 58.2644 28.9015 57.5707 26.1278 54.7325L24.0475 52.6197H21.526H19.0359L19.2251 54.1964Z" fill="url(#paint3_linear_37_134)"/>
<path d="M33.1566 58.3905C32.5577 59.3366 31.2339 59.9672 30.4144 59.6834C29.9416 59.5573 29.4058 59.8726 28.2396 61.0079C26.7582 62.4585 26.6951 62.6162 26.6951 64.2875C26.6951 66.9679 28.145 71.4774 29.0591 71.7612C29.2482 71.8243 29.6264 71.1621 29.9416 70.3106C31.2024 66.7472 34.9216 62.2693 38.3257 60.188C39.2083 59.6204 39.9332 59.1158 39.9332 59.0527C39.9332 58.9897 39.4604 58.6428 38.9246 58.2959C38.1681 57.8229 37.3171 57.6652 35.7727 57.6652C33.8815 57.6652 33.5978 57.7598 33.1566 58.3905Z" fill="url(#paint4_linear_37_134)"/>
<defs>
<linearGradient id="paint0_linear_37_134" x1="43.1071" y1="-1.14441e-05" x2="43.1071" y2="39.1392" gradientUnits="userSpaceOnUse">
<stop stop-color="#65D46E"/>
<stop offset="1" stop-color="#03CA13"/>
</linearGradient>
<linearGradient id="paint1_linear_37_134" x1="45.1582" y1="15.1353" x2="45.1582" y2="59.3682" gradientUnits="userSpaceOnUse">
<stop stop-color="#65D46E"/>
<stop offset="1" stop-color="#03CA13"/>
</linearGradient>
<linearGradient id="paint2_linear_37_134" x1="46.9231" y1="44.7672" x2="46.9231" y2="84" gradientUnits="userSpaceOnUse">
<stop stop-color="#65D46E"/>
<stop offset="1" stop-color="#03CA13"/>
</linearGradient>
<linearGradient id="paint3_linear_37_134" x1="23.7245" y1="52.6197" x2="23.7245" y2="61.8594" gradientUnits="userSpaceOnUse">
<stop stop-color="#65D46E"/>
<stop offset="1" stop-color="#03CA13"/>
</linearGradient>
<linearGradient id="paint4_linear_37_134" x1="33.3142" y1="57.6652" x2="33.3142" y2="71.7654" gradientUnits="userSpaceOnUse">
<stop stop-color="#65D46E"/>
<stop offset="1" stop-color="#03CA13"/>
</linearGradient>
</defs>
</svg>
